<svg width="24" height="24" viewBox="0 0 24 24" fill="none" xmlns="http://www.w3.org/2000/svg">
<path fill-rule="evenodd" clip-rule="evenodd" d="M0 12C0 8.8174 1.26428 5.76516 3.51472 3.51472C5.76516 1.26428 8.8174 0 12 0C15.1826 0 18.2348 1.26428 20.4853 3.51472C22.7357 5.76516 24 8.8174 24 12C24 15.1826 22.7357 18.2348 20.4853 20.4853C18.2348 22.7357 15.1826 24 12 24C8.8174 24 5.76516 22.7357 3.51472 20.4853C1.26428 18.2348 0 15.1826 0 12H0ZM6.4 9.6H8V8H6.4V9.6ZM9.312 17.656C11.3984 16.3495 13.8451 15.7379 16.3008 15.9088L17.0976 15.9648L17.2096 14.368L16.4096 14.3136C13.6178 14.1194 10.8362 14.8145 8.464 16.2992L7.7856 16.7248L8.6352 18.08L9.3136 17.656H9.312ZM17.6 9.6H16V8H17.6V9.6Z" fill="#212529"/>
</svg>
